<svg xmlns="http://www.w3.org/2000/svg" viewBox="0 0 80 80" width="80" height="80">
  <defs>
    <linearGradient id="g1" x1="0" y1="0" x2="1" y2="1"><stop offset="0%" stop-color="#a855f7"/><stop offset="55%" stop-color="#6b21a8"/><stop offset="100%" stop-color="#3b0764"/></linearGradient>
    <linearGradient id="g2" x1="0" y1="0" x2="1" y2="1"><stop offset="0%" stop-color="#fcd34d"/><stop offset="55%" stop-color="#FFD100"/><stop offset="100%" stop-color="#92400e"/></linearGradient>
  </defs>
  <path d="M40 6 L72 16 L72 44 Q72 62 40 74 Q8 62 8 44 L8 16 Z" fill="url(#g1)" stroke="url(#g2)" stroke-width="2.5"/>
  <g transform="translate(40 40)">
    <line x1="0" y1="-15" x2="0" y2="15" stroke="url(#g2)" stroke-width="2.2" stroke-linecap="round"/>
    <circle cx="0" cy="-15" r="2.4" fill="url(#g2)"/>
    <line x1="-14" y1="-9" x2="14" y2="-9" stroke="url(#g2)" stroke-width="2.2" stroke-linecap="round"/>
    <line x1="-14" y1="-9" x2="-14" y2="-2" stroke="#fff" stroke-width="1" stroke-dasharray="1 1"/>
    <path d="M-19 -2 Q-14 5 -9 -2 Z" fill="#fff" stroke="#0f172a" stroke-width="1"/>
    <line x1="14" y1="-9" x2="14" y2="-2" stroke="#fff" stroke-width="1" stroke-dasharray="1 1"/>
    <path d="M9 -2 Q14 5 19 -2 Z" fill="#fff" stroke="#0f172a" stroke-width="1"/>
    <rect x="-9" y="15" width="18" height="3" rx="1" fill="url(#g2)"/>
  </g>
</svg>
